<svg xmlns="http://www.w3.org/2000/svg" width="1200" height="630" viewBox="0 0 1200 630">
  <rect width="1200" height="630" fill="#101418"/>
  <text x="90" y="180" fill="#f8fafc" font-family="Inter, system-ui, sans-serif" font-size="96" font-weight="750">Forma</text>
  <text x="96" y="260" fill="#9ca3af" font-family="Inter, system-ui, sans-serif" font-size="40">source -> types -> targets, inspectable at every pass</text>
  <g transform="translate(96 380)" fill="none" stroke-width="4">
    <rect width="160" height="80" rx="10" fill="#182028" stroke="#6ee7b7"/>
    <rect x="250" width="160" height="80" rx="10" fill="#182028" stroke="#60a5fa"/>
    <rect x="500" width="190" height="80" rx="10" fill="#182028" stroke="#f59e0b"/>
    <rect x="780" width="190" height="80" rx="10" fill="#182028" stroke="#e879f9"/>
    <path d="M176 40h58M426 40h58M706 40h58" stroke="#64748b"/>
    <path d="M226 30l16 10-16 10M476 30l16 10-16 10M756 30l16 10-16 10" stroke="#64748b"/>
    <g fill="#f8fafc" font-family="Inter, system-ui, sans-serif" font-size="24" font-weight="700" stroke="none">
      <text x="37" y="49">SOURCE</text>
      <text x="305" y="49">READ</text>
      <text x="548" y="49">TYPES</text>
      <text x="826" y="49">TARGET</text>
    </g>
  </g>
</svg>
